<?xml version="1.0" encoding="UTF-8"?>
<svg width="190px" height="60px" viewBox="0 0 190 60" version="1.1" xmlns="http://www.w3.org/2000/svg" xmlns:xlink="http://www.w3.org/1999/xlink">
    <title>Download_on_the_App_Store_Badge_FR_RGB_blk_100517</title>
    <g id="Page-1" stroke="none" stroke-width="1" fill="none" fill-rule="evenodd">
        <g id="Artboard" transform="translate(-83.000000, -161.000000)" fill-rule="nonzero">
            <g id="Download_on_the_App_Store_Badge_FR_RGB_blk_100517" transform="translate(83.000000, 161.000000)">
                <g id="Group">
                    <path d="M175.201397,0 L14.2803455,0 C13.7311291,0 13.1885027,0 12.640739,0.00319498962 C12.18221,0.00619497987 11.7273354,0.0149099515 11.264403,0.0222449277 C10.2587,0.0340975946 9.25536203,0.122708991 8.26310836,0.287309066 C7.27224839,0.455492462 6.31242785,0.7725661 5.4161095,1.22780601 C4.52088737,1.68689708 3.70289732,2.28343887 2.99181406,2.99579026 C2.27699775,3.70613845 1.68114315,4.52720485 1.22716243,5.42741736 C0.771928739,6.32583812 0.456268229,7.28857876 0.291083198,8.28238808 C0.124327709,9.27494222 0.034595063,10.2789424 0.0226905606,11.2853783 C0.00879165613,11.7452768 0.0073238839,12.2067053 0,12.6666638 L0,47.3379412 C0.0073238839,47.8036896 0.00879165613,48.2548882 0.0226905606,48.7207867 C0.0345987136,49.7271727 0.124331361,50.7311227 0.291083198,51.7236269 C0.455812104,52.7180172 0.771491277,53.6813105 1.22716243,54.5800676 C1.68093702,55.477369 2.27687541,56.2951114 2.99181406,57.0015097 C3.70020111,57.7170285 4.5187199,58.3139761 5.4161095,58.769554 C6.31242104,59.2260123 7.27213811,59.5449732 8.26310836,59.7157509 C9.25553071,59.8790325 10.2587655,59.9676799 11.264403,59.9809501 C11.7273354,59.99115 12.18221,59.997 12.640739,59.997 C13.1884877,60 13.731159,60 14.2803455,60 L175.201397,60 C175.73968,60 176.286649,60 176.824932,59.997 C177.28129,59.997 177.749329,59.99115 178.205687,59.9809501 C179.209423,59.9683857 180.210769,59.8797326 181.20114,59.7157509 C182.195307,59.543771 183.158465,59.2248946 184.059102,58.769554 C184.955683,58.3137124 185.773446,57.716781 186.481226,57.0015097 C187.19432,56.2923448 187.791531,55.4752006 188.25094,54.5800676 C188.703192,53.6806567 189.015866,52.7174404 189.178183,51.7236269 C189.345202,50.7309866 189.438118,49.7272598 189.456161,48.7207867 C189.462002,48.2548882 189.462002,47.8036896 189.462002,47.3379412 C189.473684,46.7929929 189.473684,46.2510447 189.473684,45.6972465 L189.473684,14.3043435 C189.473684,13.7550303 189.473684,13.2101121 189.462002,12.6666638 C189.462002,12.2067053 189.462002,11.7452768 189.456161,11.2853183 C189.438122,10.2787953 189.345205,9.27501835 189.178183,8.28232808 C189.015414,7.28909371 188.702758,6.32642935 188.25094,5.42735736 C187.32643,3.62297734 185.860423,2.15422609 184.059102,1.22767101 C183.158462,0.773543349 182.195202,0.456553913 181.20114,0.287174067 C180.21094,0.121848779 179.20949,0.0332065394 178.205687,0.0220349284 C177.749329,0.0147149522 177.28129,0.00592498074 176.824932,0.00299999025 C176.286649,0 175.73968,0 175.201397,0 L175.201397,0 Z" id="Path" fill="#A6A6A6"></path>
                    <path d="M12.648033,58.6875043 C12.1917206,58.6875043 11.7464015,58.6816543 11.2936686,58.6714543 C10.3557648,58.6592155 9.42005312,58.5774422 8.4942076,58.4268051 C7.63090336,58.2778978 6.79459362,58.0009032 6.01286375,57.6049578 C5.23830193,57.2122931 4.53183928,56.69742 3.92053945,56.0800627 C3.3003912,55.4699776 2.78408944,54.762383 2.39209431,53.9853195 C1.99577972,53.2032058 1.72150644,52.3648742 1.57882867,51.4995276 C1.42474907,50.569703 1.34138562,49.6295036 1.32945717,48.6870368 C1.31996158,48.3706878 1.30753045,47.3173912 1.30753045,47.3173912 L1.30753045,12.6666638 C1.30753045,12.6666638 1.32077035,11.6295522 1.32953205,11.3248582 C1.34095423,10.383885 1.42382788,9.44514506 1.57743579,8.51676232 C1.72038782,7.64904595 1.99487819,6.80829775 2.39140535,6.02362042 C2.78195887,5.24709698 3.29538872,4.53897456 3.91179273,3.92670224 C4.52752005,3.30861869 5.23624707,2.79109479 6.01212986,2.39300222 C6.79206309,1.99832891 7.62679232,1.72328822 8.48835149,1.57709487 C9.41723757,1.42494402 10.3561977,1.3426842 11.297353,1.33100567 L12.6487818,1.31269073 L176.817608,1.31269073 L178.185183,1.33174067 C179.117777,1.34283943 180.048208,1.42436538 180.968558,1.57562488 C181.838839,1.723652 182.682268,2.0006118 183.47111,2.39739721 C185.025478,3.1996645 186.290237,4.4689255 187.08812,6.02728041 C187.478319,6.80653922 187.748571,7.6404303 187.889703,8.50065237 C188.045151,9.4366514 188.132151,10.3827688 188.150008,11.3314582 C188.154352,11.7562568 188.154352,12.2125553 188.154352,12.6666638 C188.166184,13.229162 188.166184,13.7645553 188.166184,14.3043435 L188.166184,45.6972465 C188.166184,46.2421947 188.166184,46.773943 188.154352,47.3100412 C188.154352,47.7978397 188.154352,48.2446882 188.148511,48.7045867 C188.13104,49.6363472 188.045491,50.565577 187.892549,51.4848277 C187.752796,52.3564166 187.480016,53.2012918 187.083777,53.9898195 C186.68901,54.7584487 186.175674,55.459914 185.562685,56.0683628 C184.950836,56.6890377 184.243126,57.2069231 183.466766,57.6021078 C182.680109,58.001097 181.837922,58.279116 180.968558,58.4268051 C180.042783,58.5782461 179.106981,58.6600246 178.169007,58.6714543 C177.730323,58.6816543 177.27097,58.6875043 176.824947,58.6875043 L175.201411,58.6905043 L12.648033,58.6875043 Z" id="Path" fill="#000000"></path>
                </g>
                <g id="Group" transform="translate(14.736842, 11.578947)" fill="#FFFFFF">
                    <g id="_Group_3" transform="translate(0.000000, 1.044470)">
                        <path d="M22.1835947,17.35774 C22.2163619,14.8149198 23.5496971,12.4661275 25.7164641,11.1342662 C24.343339,9.1735597 22.125895,7.97499711 19.7330617,7.9001451 C17.2156059,7.63595106 14.7750423,9.40627294 13.4921928,9.40627294 C12.1845173,9.40627294 10.209369,7.92637564 8.08246041,7.97012819 C5.28400329,8.06052376 2.73832715,9.612753 1.37682084,12.0589004 C-1.52256187,17.0778076 0.640116779,24.4539114 3.41748255,28.5108172 C4.80705744,30.4973687 6.43107156,32.7163977 8.55606123,32.6377061 C10.6354913,32.5514751 11.4121181,31.3119695 13.922168,31.3119695 C16.4089209,31.3119695 17.1375594,32.6377061 19.3056651,32.5876732 C21.5369904,32.5514601 22.9428312,30.5922933 24.2836533,28.5869308 C25.2820395,27.1714364 26.0502919,25.6070113 26.5599536,23.951604 C23.9098402,22.8309137 22.1866777,20.2346231 22.1835947,17.35774 Z" id="_Path_"></path>
                        <path d="M18.088434,5.23204915 C19.3050453,3.77182013 19.9044235,1.89494311 19.759282,0 C17.9005706,0.195185953 16.1836418,1.08336593 14.9505943,2.48756986 C13.7330166,3.87300575 13.1161945,5.6855268 13.2359857,7.52591768 C15.1196203,7.54530845 16.9080916,6.69985524 18.088434,5.23204915 Z" id="_Path_2"></path>
                    </g>
                    <g id="Group" transform="translate(35.685783, 0.000000)">
                        <polygon id="Path" points="2.81393038 10.0099052 2.81393038 2.3303065 0 2.3303065 0 1.06633905 7.01122911 1.06633905 7.01122911 2.33029152 4.20323542 2.33029152 4.20323542 10.0099052"></polygon>
                        <path d="M13.4720552,8.18752694 C13.0984742,9.46065182 11.8662243,10.283232 10.5469319,10.1401736 C9.64677687,10.1639319 8.78167779,9.7908874 8.18116742,9.12001817 C7.58065706,8.44914895 7.30544475,7.54827739 7.42855132,6.65642762 C7.30871925,5.7621017 7.58290256,4.85979087 8.18006838,4.18325752 C8.77723419,3.50672417 9.63862155,3.122539 10.5410701,3.13023316 C12.4194174,3.13023316 13.5525753,4.41328147 13.5525753,6.53270939 L13.5525753,6.99745467 L8.7856993,6.99745467 L8.7856993,7.0720993 C8.74351585,7.57293802 8.91459849,8.06833197 9.25687266,8.43644835 C9.59914683,8.80456472 10.0808537,9.01124683 10.5835265,9.00566508 C11.2353207,9.08389908 11.8697977,8.76064639 12.1895656,8.18742201 L13.4720552,8.18752694 Z M8.78566932,6.01238534 L12.1954273,6.01238534 C12.2293877,5.55432576 12.0682959,5.10322731 11.7518502,4.77025532 C11.4354044,4.43728333 10.9930343,4.25340439 10.5337542,4.26393225 C10.0682441,4.25807272 9.62009635,4.44042555 9.29097267,4.76962419 C8.961849,5.09882283 8.77964711,5.54696326 8.7856993,6.01238534 L8.78566932,6.01238534 Z M9.74024685,2.13195863 L11.2965138,0 L12.8586424,0 L11.1164342,2.13195863 L9.74024685,2.13195863 Z" id="Shape"></path>
                        <polygon id="Path" points="15.4030981 0.625755848 16.7353599 0.625755848 16.7353599 10.0099052 15.4030981 10.0099052"></polygon>
                        <path d="M24.6308408,8.18752694 C24.2572597,9.46065182 23.0250099,10.283232 21.7057175,10.1401736 C20.8055624,10.1639319 19.9404634,9.7908874 19.339953,9.12001817 C18.7394426,8.44914895 18.4642303,7.54827739 18.5873369,6.65642762 C18.4675048,5.7621017 18.7416881,4.85979087 19.338854,4.18325752 C19.9360198,3.50672417 20.7974071,3.122539 21.6998557,3.13023316 C23.578203,3.13023316 24.7113609,4.41328147 24.7113609,6.53270939 L24.7113609,6.99745467 L19.9444549,6.99745467 L19.9444549,7.0720993 C19.9022715,7.57293802 20.0733541,8.06833197 20.4156283,8.43644835 C20.7579024,8.80456472 21.2396093,9.01124683 21.7422821,9.00566508 C22.3940763,9.08389908 23.0285533,8.76064639 23.3483212,8.18742201 L24.6308408,8.18752694 Z M19.9444549,6.01238534 L23.3541679,6.01238534 C23.3881284,5.55432576 23.2270365,5.10322731 22.9105908,4.77025532 C22.594145,4.43728333 22.1517749,4.25340439 21.6924948,4.26393225 C21.2269873,4.2580768 20.7788434,4.44043142 20.449723,4.76962961 C20.1206026,5.09882781 19.9384028,5.54696589 19.9444549,6.01238534 L19.9444549,6.01238534 Z M20.8990024,2.13195863 L22.4552694,0 L24.017398,0 L22.2752498,2.13195863 L20.8990024,2.13195863 Z" id="Shape"></path>
                        <path d="M30.9203275,5.46640032 C30.7448093,4.74318941 30.0675792,4.25634542 29.3259968,4.32027545 C28.2104091,4.32027545 27.5281697,5.17510639 27.5281697,6.61325964 C27.5281697,8.07627945 28.2162858,8.95014627 29.3259968,8.95014627 C30.0612758,9.03532102 30.7448725,8.55959433 30.9203275,7.84062425 L32.2159948,7.84062425 C32.0378036,9.26189189 30.7589358,10.2820718 29.3333277,10.1401886 C28.419661,10.1690314 27.5398362,9.79324386 26.9290269,9.1132724 C26.3182176,8.43330095 26.0386953,7.51846802 26.165175,6.61330461 C26.0450618,5.71483096 26.3272605,4.80911319 26.9364802,4.13779761 C27.5456998,3.46648203 28.4199616,3.09786473 29.3260118,3.13029312 C30.763174,2.99794156 32.0444691,4.03369173 32.2159948,5.46644529 L30.9203275,5.46640032 Z" id="Path"></path>
                        <path d="M33.9845433,0.625755848 L35.3050967,0.625755848 L35.3050967,4.34517199 L35.4105029,4.34517199 C35.7733421,3.5488405 36.5964915,3.06532762 37.4688547,3.1361088 C38.1304306,3.10011642 38.7736044,3.36093261 39.22319,3.8475169 C39.6727757,4.33410119 39.8819461,4.99577286 39.7937279,5.65230742 L39.7937279,10.0099202 L38.4599968,10.0099202 L38.4599968,5.98090869 C38.4599968,4.90284833 37.957777,4.35686331 37.0164671,4.35686331 C36.552969,4.31885701 36.096324,4.48732798 35.7686116,4.81723709 C35.4408993,5.14714619 35.275536,5.60485309 35.3167302,6.06799409 L35.3167302,10.0099202 L33.9844683,10.0099202 L33.9845433,0.625755848 Z" id="Path"></path>
                        <path d="M41.4686386,8.101161 C41.4686386,6.88623716 42.3734139,6.18583668 43.9794381,6.08629552 L45.8080131,5.98090869 L45.8080131,5.39833581 C45.8080131,4.68547956 45.336601,4.28295314 44.425964,4.28295314 C43.6822439,4.28295314 43.1669063,4.55594565 43.0190288,5.0331317 L41.7292233,5.0331317 C41.8653773,3.8738316 42.9560789,3.13024815 44.4874447,3.13024815 C46.1798657,3.13024815 47.1336786,3.97262332 47.1336786,5.39833581 L47.1336786,10.0099052 L45.8518936,10.0099052 L45.8518936,9.06139375 L45.7465624,9.06139375 C45.3109782,9.75406946 44.5363679,10.1588995 43.7188834,10.1211077 C43.1458024,10.1807153 42.5742456,9.9951553 42.1455148,9.61030241 C41.7167841,9.22544952 41.4708956,8.67722447 41.4686386,8.101161 Z M45.8080281,7.52443378 L45.8080281,6.96017732 L44.1595176,7.06556415 C43.2298562,7.12776801 42.8082164,7.44394349 42.8082164,8.03895714 C42.8082164,8.64641156 43.3352624,8.99990935 44.0600181,8.99990935 C44.4890603,9.04333626 44.9173609,8.91081432 45.2468714,8.63268098 C45.576382,8.35454764 45.778887,7.95461916 45.8080281,7.52444877 L45.8080281,7.52443378 Z" id="Shape"></path>
                        <path d="M49.2199299,3.26051653 L50.5024195,3.26051653 L50.5024195,4.29539391 L50.601979,4.29539391 C50.8965256,3.55837299 51.6326627,3.09519227 52.4246923,3.14853459 C52.6242379,3.14585233 52.8234989,3.16449946 53.0190807,3.20415833 L53.0190807,4.51868329 C52.7745864,4.46644962 52.5253709,4.43947285 52.2753606,4.438178 C51.8310294,4.3982832 51.390509,4.54784713 51.0623558,4.85001306 C50.7342027,5.15217899 50.5489345,5.57884589 50.5522068,6.02487108 L50.5522068,10.0099502 L49.2199299,10.0099502 L49.2199299,3.26051653 Z" id="Path"></path>
                        <path d="M54.2444822,10.6854241 L55.6074919,10.6854241 C55.720229,11.175051 56.2838696,11.4912264 57.1827832,11.4912264 C58.2925092,11.4912264 58.9498625,10.9642773 58.9498625,10.0721091 L58.9498625,8.77667993 L58.850303,8.77667993 C58.4242178,9.51606884 57.6193612,9.95405064 56.7669901,9.91036403 C55.0438363,9.91036403 53.9780208,8.57834705 53.9780208,6.55762091 C53.9780208,4.4996474 55.0555448,3.14853459 56.7801678,3.14853459 C57.6536705,3.11812238 58.4712762,3.57709778 58.9000753,4.33857688 L59.0054815,4.33857688 L59.0054815,3.26051653 L60.2821094,3.26051653 L60.2821094,10.065469 C60.2821094,11.6090091 59.0728239,12.5882627 57.1637288,12.5882627 C55.4771846,12.5882627 54.386483,11.8322835 54.2444822,10.6854241 Z M58.9747486,6.55104079 C58.9747486,5.20653807 58.2793315,4.345157 57.1447194,4.345157 C55.9983839,4.345157 55.3542082,5.20658304 55.3542082,6.55104079 C55.3542082,7.896233 55.9983839,8.75765904 57.1447194,8.75765904 C58.2866624,8.75765904 58.9747486,7.90282811 58.9747486,6.55098084 L58.9747486,6.55104079 Z" id="Shape"></path>
                        <path d="M68.1132012,8.18752694 C67.7396201,9.46065182 66.5073702,10.283232 65.1880778,10.1401736 C64.2879228,10.1639319 63.4228237,9.7908874 62.8223134,9.12001817 C62.221803,8.44914895 61.9465907,7.54827739 62.0696973,6.65642762 C61.9498652,5.7621017 62.2240485,4.85979087 62.8212143,4.18325752 C63.4183801,3.50672417 64.2797675,3.122539 65.1822161,3.13023316 C67.0605633,3.13023316 68.1937212,4.41328147 68.1937212,6.53270939 L68.1937212,6.99745467 L63.4268602,6.99745467 L63.4268602,7.0720993 C63.3846768,7.57293802 63.5557594,8.06833197 63.8980336,8.43644835 C64.2403077,8.80456472 64.7220146,9.01124683 65.2246874,9.00566508 C65.8764816,9.08389908 66.5109587,8.76064639 66.8307265,8.18742201 L68.1132012,8.18752694 Z M63.4268152,6.01238534 L66.8365283,6.01238534 C66.8704887,5.55432576 66.7093969,5.10322731 66.3929511,4.77025532 C66.0765053,4.43728333 65.6341352,4.25340439 65.1748552,4.26393225 C64.7093554,4.25808903 64.2612232,4.44044905 63.9321127,4.76964589 C63.6030021,5.09884272 63.4208084,5.54697379 63.4268602,6.01238534 L63.4268152,6.01238534 Z" id="Shape"></path>
                        <path d="M69.9827633,3.26051653 L71.2653279,3.26051653 L71.2653279,4.29539391 L71.3648874,4.29539391 C71.659434,3.55837299 72.3955711,3.09519227 73.1876006,3.14853459 C73.3871463,3.14585233 73.5864072,3.16449946 73.7819891,3.20415833 L73.7819891,4.51868329 C73.5374948,4.46644962 73.2882792,4.43947285 73.0382689,4.438178 C72.593923,4.39825628 72.1533781,4.54780811 71.8252044,4.84997711 C71.4970308,5.15214612 71.3117506,5.57882876 71.3150252,6.02487108 L71.3150252,10.0099502 L69.9827633,10.0099502 L69.9827633,3.26051653 Z" id="Path"></path>
                        <path d="M78.5824614,6.63228053 C78.5824614,4.49958745 79.6790247,3.14853459 81.3846083,3.14853459 C82.2458431,3.10885922 83.0524693,3.57025108 83.4547436,4.33265627 L83.554303,4.33265627 L83.554303,0.625755848 L84.8865649,0.625755848 L84.8865649,10.0099052 L83.609937,10.0099052 L83.609937,8.94355116 L83.5045008,8.94355116 C83.0718184,9.69963081 82.2552545,10.1532236 81.3845933,10.1211377 C79.6673012,10.1211527 78.5824614,8.77009981 78.5824614,6.63228053 Z M79.9586937,6.63228053 C79.9586937,8.06383868 80.6336172,8.92526472 81.7623826,8.92526472 C82.8852562,8.92526472 83.5792341,8.0514129 83.5792341,6.63814119 C83.5792341,5.23146458 82.8779703,4.345157 81.7623826,4.345157 C80.6408882,4.345157 79.9586487,5.21247367 79.9586487,6.63228053 L79.9586937,6.63228053 Z" id="Shape"></path>
                        <path d="M86.6873154,8.101161 C86.6873154,6.88623716 87.5920907,6.18583668 89.1981149,6.08629552 L91.0266899,5.98090869 L91.0266899,5.39833581 C91.0266899,4.68547956 90.5552779,4.28295314 89.6446558,4.28295314 C88.9009357,4.28295314 88.3855981,4.55594565 88.2377206,5.0331317 L86.9479151,5.0331317 C87.0840691,3.8738316 88.1747707,3.13024815 89.7061365,3.13024815 C91.3985575,3.13024815 92.353105,3.97262332 92.353105,5.39833581 L92.353105,10.0099052 L91.0706154,10.0099052 L91.0706154,9.06139375 L90.9652092,9.06139375 C90.5296251,9.75406946 89.7550147,10.1588995 88.9375303,10.1211077 C88.3644541,10.1807062 87.7929055,9.99514213 87.3641816,9.61029027 C86.9354577,9.22543841 86.6895733,8.67721868 86.6873154,8.101161 L86.6873154,8.101161 Z M91.0266899,7.52443378 L91.0266899,6.96017732 L89.3782244,7.06554916 C88.448563,7.12775302 88.0269232,7.4439285 88.0269232,8.03894215 C88.0269232,8.64639657 88.5539692,8.99989437 89.2787249,8.99989437 C89.7077574,9.04330834 90.1360439,8.91078247 90.4655439,8.63265369 C90.7950439,8.35452491 90.9975443,7.95460784 91.0266899,7.52444877 L91.0266899,7.52443378 Z" id="Shape"></path>
                        <path d="M94.4394013,3.26051653 L95.7218909,3.26051653 L95.7218909,4.33271623 L95.8214504,4.33271623 C96.1676595,3.54329369 96.9766503,3.06039617 97.8359517,3.13023316 C98.5013057,3.08021792 99.1533056,3.33541582 99.6078595,3.82377184 C100.062413,4.31212785 100.270193,4.98064627 100.172533,5.64057113 L100.172533,10.0098302 L98.8402715,10.0098302 L98.8402715,5.97506302 C98.8402715,4.89042255 98.3688594,4.35101765 97.383564,4.35101765 C96.9322645,4.33000192 96.4942903,4.50708574 96.1844648,4.83584321 C95.8746393,5.16460067 95.7238624,5.61224366 95.7716631,6.06141397 L95.7716631,10.0099052 L94.4394013,10.0099052 L94.4394013,3.26051653 Z" id="Path"></path>
                        <path d="M104.700712,3.13024815 C106.218916,3.13024815 107.211512,3.83650928 107.341819,5.02655158 L106.063722,5.02655158 C105.940791,4.5310641 105.456156,4.21490361 104.700712,4.21490361 C103.956992,4.21490361 103.391943,4.56766695 103.391943,5.09461609 C103.391943,5.49781702 103.733062,5.75184859 104.465074,5.91943928 L105.586448,6.17925656 C106.870407,6.47713061 107.472112,7.0289613 107.472112,8.0206707 C107.472112,9.29121828 106.287772,10.1401886 104.675826,10.1401886 C103.069787,10.1401886 102.023011,9.41489154 101.904427,8.21900359 L103.238158,8.21900359 C103.474699,8.80482341 104.081359,9.1528412 104.706574,9.06137876 C105.536676,9.06137876 106.126687,8.68965448 106.126687,8.15018963 C106.126687,7.7476632 105.810453,7.48711147 105.134076,7.32610089 L103.956992,7.05310839 C102.673034,6.74937368 102.078645,6.17339591 102.078645,5.16924573 C102.07863,3.97263831 103.175193,3.13024815 104.700712,3.13024815 Z" id="Path"></path>
                    </g>
                </g>
                <g id="Group" transform="translate(52.631579, 27.368421)" fill="#FFFFFF">
                    <polygon id="Path" points="0 0.306926487 2.79842606 0.306926487 2.79842606 18.7175641 0 18.7175641"></polygon>
                    <polygon id="Path" points="6.17004349 7.04343139 7.69859895 0.306926487 10.4176496 0.306926487 8.56575314 7.04343139"></polygon>
                    <path d="M20.992545,13.7415686 L13.8686424,13.7415686 L12.1578427,18.7175789 L9.14041944,18.7175789 L15.8880791,0.306941312 L19.0230604,0.306941312 L25.77072,18.7175789 L22.7018849,18.7175789 L20.992545,13.7415686 Z M14.6064542,11.4453944 L20.2533336,11.4453944 L17.4696117,3.3689863 L17.3917112,3.3689863 L14.6064542,11.4453944 Z" id="Shape"></path>
                    <path d="M40.3419113,12.0071516 C40.3419113,16.178197 38.0755441,18.8580182 34.6554195,18.8580182 C32.887587,18.9491112 31.2223853,18.0370135 30.3681407,16.5097037 L30.3034243,16.5097037 L30.3034243,23.1578947 L27.5064732,23.1578947 L27.5064732,5.29451525 L30.2137696,5.29451525 L30.2137696,7.52697069 L30.2652116,7.52697069 C31.157407,6.00923592 32.8244042,5.09753086 34.6039324,5.15406114 C38.0623149,5.15409079 40.3419113,7.84694337 40.3419113,12.0071516 Z M37.4670597,12.0071516 C37.4670597,9.28894784 36.0413882,7.50240531 33.8661507,7.50240531 C31.7291259,7.50240531 30.2917001,9.3266039 30.2917001,12.0071516 C30.2917001,14.7115975 31.7291259,16.5227647 33.8661507,16.5227647 C36.0414033,16.5227647 37.4670597,14.749209 37.4670597,12.0071516 L37.4670597,12.0071516 Z" id="Shape"></path>
                    <path d="M55.3385902,12.0071516 C55.3385902,16.178197 53.0722229,18.8580182 49.6520983,18.8580182 C47.8842658,18.9491112 46.2190642,18.0370135 45.3648196,16.5097037 L45.3001032,16.5097037 L45.3001032,23.1578947 L42.5039196,23.1578947 L42.5039196,5.29451525 L45.2104785,5.29451525 L45.2104785,7.52697069 L45.2619506,7.52697069 C46.154146,6.00923592 47.8211432,5.09753086 49.6006714,5.15406114 C53.0589937,5.15409079 55.3385902,7.84694337 55.3385902,12.0071516 Z M52.4637386,12.0071516 C52.4637386,9.28894784 51.0380671,7.50240531 48.8628296,7.50240531 C46.7258048,7.50240531 45.288379,9.3266039 45.288379,12.0071516 C45.288379,14.7115975 46.7258048,16.5227647 48.8628296,16.5227647 C51.0380671,16.5227647 52.4637386,14.749209 52.4637386,12.0071516 L52.4637386,12.0071516 Z" id="Shape"></path>
                    <path d="M65.2506244,13.588098 C65.4578672,15.4137494 67.2583368,16.6124424 69.7186876,16.6124424 C72.0761845,16.6124424 73.7722801,15.4136901 73.7722801,13.7675572 C73.7722801,12.3385989 72.749325,11.4829911 70.3271719,10.8966241 L67.9050189,10.3211388 C64.4731249,9.50465476 62.8798531,7.9236787 62.8798531,5.35821921 C62.8798531,2.18179767 65.6900334,0 69.6804146,0 C73.6296181,0 76.3369446,2.18179767 76.4280743,5.35821921 L73.6047098,5.35821921 C73.4356947,3.52098926 71.89391,2.41200366 69.6407721,2.41200366 C67.3876341,2.41200366 65.8458644,3.53403545 65.8458644,5.16712215 C65.8458644,6.46867251 66.8306068,7.23454327 69.2395306,7.82083616 L71.2986549,8.31887453 C75.1332502,9.21215321 76.7264769,10.7301369 76.7264769,13.4230043 C76.7264769,16.8672583 73.9412801,19.0244461 69.5114296,19.0244461 C65.3667075,19.0244461 62.5682964,16.9179309 62.387512,13.5880387 L65.2506244,13.588098 Z" id="Path"></path>
                    <path d="M82.7643335,2.11809371 L82.7643335,5.29451525 L85.3555166,5.29451525 L85.3555166,7.47631292 L82.7643335,7.47631292 L82.7643335,14.876617 C82.7643335,16.0261495 83.2831631,16.5618291 84.4222163,16.5618291 C84.7298319,16.5565453 85.0369498,16.5352662 85.3422874,16.4980807 L85.3422874,18.666847 C84.8301677,18.7611051 84.3096412,18.8037942 83.7887484,18.7942549 C81.0300251,18.7942549 79.9541531,17.7735683 79.9541531,15.1704676 L79.9541531,7.47631292 L77.972854,7.47631292 L77.972854,5.29451525 L79.9540929,5.29451525 L79.9540929,2.11809371 L82.7643335,2.11809371 Z" id="Path"></path>
                    <path d="M86.8546036,12.0071516 C86.8546036,7.78326906 89.3796406,5.12949575 93.317135,5.12949575 C97.2678435,5.12949575 99.7811262,7.78320976 99.7811262,12.0071516 C99.7811262,16.2419009 97.2810727,18.8840809 93.317135,18.8840809 C89.3546571,18.8840809 86.8546036,16.2418713 86.8546036,12.0071516 Z M96.9312582,12.0071516 C96.9312582,9.10942928 95.5834871,7.39960725 93.3171199,7.39960725 C91.0507527,7.39960725 89.7044566,9.12246065 89.7044566,12.0071516 C89.7044566,14.9157259 91.0507527,16.6125314 93.3171199,16.6125314 C95.5834871,16.6125314 96.9312582,14.9157111 96.9312582,12.0071516 L96.9312582,12.0071516 Z" id="Shape"></path>
                    <path d="M102.087151,5.29451525 L104.754775,5.29451525 L104.754775,7.57908133 L104.819491,7.57908133 C105.191499,6.10840253 106.559507,5.09623027 108.097044,5.15406114 C108.419368,5.15295255 108.740802,5.18743381 109.055328,5.2568592 L109.055328,7.8338527 C108.648414,7.71137167 108.223933,7.65513662 107.798626,7.66736551 C106.976227,7.63455727 106.180356,7.95748326 105.620009,8.55134331 C105.059662,9.14520337 104.790828,9.95065959 104.884102,10.7561997 L104.884102,18.7175196 L102.087151,18.7175196 L102.087151,5.29451525 Z" id="Path"></path>
                    <path d="M121.949462,14.7752718 C121.573204,17.2118705 119.164265,18.8840513 116.082186,18.8840513 C112.118248,18.8840513 109.657882,16.2679192 109.657882,12.0708259 C109.657882,7.85997474 112.131478,5.1294661 115.964613,5.1294661 C119.734537,5.1294661 122.105263,7.68044135 122.105263,11.750868 L122.105263,12.6948193 L112.481292,12.6948193 L112.481292,12.8613065 C112.391438,13.8605731 112.741725,14.8497084 113.443052,15.5771084 C114.14438,16.3045084 115.129151,16.7000643 116.146872,16.6631595 C117.504174,16.788432 118.783843,16.0206904 119.293623,14.7752569 L121.949462,14.7752718 Z M112.494508,10.7692459 L119.306852,10.7692459 C119.357759,9.8712324 119.02602,8.99301465 118.391569,8.34620292 C117.757118,7.69939119 116.877487,7.34263879 115.964628,7.36190672 C115.044557,7.35655351 114.160437,7.713471 113.508802,8.35331929 C112.857167,8.99316758 112.492016,9.86292298 112.494508,10.7692459 Z" id="Shape"></path>
                </g>
            </g>
        </g>
    </g>
</svg>